<svg xmlns="http://www.w3.org/2000/svg" xmlns:svg="http://www.w3.org/2000/svg" id="svg8" width="256" height="256" version="1.1" viewBox="0 0 67.733 67.733"><metadata id="metadata5"/><g id="layer1-3" transform="translate(1.1135254e-6,-229.26667)"><path style="color:#000;font-style:normal;font-variant:normal;font-weight:400;font-stretch:normal;font-size:medium;line-height:normal;font-family:sans-serif;font-variant-ligatures:normal;font-variant-position:normal;font-variant-caps:normal;font-variant-numeric:normal;font-variant-alternates:normal;font-feature-settings:normal;text-indent:0;text-align:start;text-decoration:none;text-decoration-line:none;text-decoration-style:solid;text-decoration-color:#000;letter-spacing:normal;word-spacing:normal;text-transform:none;writing-mode:lr-tb;direction:ltr;text-orientation:mixed;dominant-baseline:auto;baseline-shift:baseline;text-anchor:start;white-space:normal;shape-padding:0;clip-rule:nonzero;display:inline;overflow:visible;visibility:visible;opacity:1;isolation:auto;mix-blend-mode:normal;color-interpolation:sRGB;color-interpolation-filters:linearRGB;solid-color:#000;solid-opacity:1;vector-effect:none;fill:#fff;fill-opacity:1;fill-rule:evenodd;stroke:none;stroke-width:26.45669365;stroke-linecap:butt;stroke-linejoin:miter;stroke-miterlimit:4;stroke-dasharray:none;stroke-dashoffset:0;stroke-opacity:1;color-rendering:auto;image-rendering:auto;shape-rendering:auto;text-rendering:auto;enable-background:accumulate" id="path3127" d="m 128.00195,47.099609 c -44.521774,0 -80.898434,36.376661 -80.898434,80.898441 0,44.52177 36.37666,80.89843 80.898434,80.89843 14.70107,0 28.50169,-3.98636 40.41016,-10.90234 l -13.16406,-22.79687 c -8.00006,4.60239 -17.29299,7.24218 -27.2461,7.24218 -30.223519,0 -54.441403,-24.21788 -54.441403,-54.4414 0,-30.223525 24.217884,-54.441409 54.441403,-54.441409 9.95406,0 19.24747,2.640923 27.24805,7.24414 L 168.41406,58.001953 C 156.50518,51.085327 142.70377,47.099609 128.00195,47.099609 Z" transform="matrix(0.26458333,0,0,0.26458333,-1.1135254e-6,229.26667)"/></g></svg>